<svg width="21" height="12" viewBox="0 0 21 12" fill="none" xmlns="http://www.w3.org/2000/svg">
<path opacity="0.774833" d="M20.2901 2.73176C20.1983 2.96319 20.0644 3.16709 19.898 3.32846L11.2958 11.61C11.0393 11.8621 10.7175 12 10.3854 12C10.0533 12 9.73154 11.8621 9.475 11.61L0.872787 3.03698C0.580001 2.74595 0.395879 2.32774 0.360926 1.87435C0.325972 1.42097 0.443051 0.969549 0.686406 0.619401C0.92976 0.269252 1.27946 0.049058 1.65857 0.00725656C2.03767 -0.0345449 2.41514 0.105471 2.70793 0.396504L10.3926 8.06074L18.0772 0.653695C18.2877 0.444029 18.5439 0.310843 18.8157 0.2699C19.0874 0.228956 19.3633 0.281966 19.6107 0.422659C19.858 0.563351 20.0665 0.785837 20.2114 1.06379C20.3564 1.34174 20.4317 1.66353 20.4285 1.99108C20.4292 2.24723 20.3819 2.50032 20.2901 2.73176Z" fill="#2E384D"/>
</svg>
