<svg width="37" height="37" viewBox="0 0 37 37" fill="none" xmlns="http://www.w3.org/2000/svg">
<g filter="url(#filter0_d_1_295)">
<circle r="13.5" transform="matrix(-1 0 0 1 18.5 17.5)" fill="white"/>
</g>
<path d="M19.859 23.0642C19.7453 23.0103 19.6452 22.9317 19.566 22.8341L15.5006 17.7852C15.3768 17.6346 15.3091 17.4458 15.3091 17.2508C15.3091 17.0559 15.3768 16.8671 15.5006 16.7165L19.7091 11.6676C19.852 11.4958 20.0573 11.3877 20.2799 11.3672C20.5024 11.3467 20.724 11.4154 20.8959 11.5582C21.0678 11.7011 21.1759 11.9063 21.1964 12.1288C21.217 12.3513 21.1482 12.5729 21.0054 12.7447L17.2429 17.2551L20.8791 21.7654C20.982 21.8889 21.0474 22.0393 21.0675 22.1988C21.0876 22.3583 21.0616 22.5202 20.9925 22.6654C20.9234 22.8106 20.8142 22.9329 20.6778 23.018C20.5413 23.1031 20.3834 23.1473 20.2226 23.1454C20.0968 23.1458 19.9726 23.1181 19.859 23.0642Z" fill="#2E384D"/>
<defs>
<filter id="filter0_d_1_295" x="0.645161" y="0.516129" width="35.7097" height="35.7097" filterUnits="userSpaceOnUse" color-interpolation-filters="sRGB">
<feFlood flood-opacity="0" result="BackgroundImageFix"/>
<feColorMatrix in="SourceAlpha" type="matrix" values="0 0 0 0 0 0 0 0 0 0 0 0 0 0 0 0 0 0 127 0" result="hardAlpha"/>
<feOffset dy="0.870968"/>
<feGaussianBlur stdDeviation="2.17742"/>
<feComposite in2="hardAlpha" operator="out"/>
<feColorMatrix type="matrix" values="0 0 0 0 0.271111 0 0 0 0 0.368791 0 0 0 0 0.508333 0 0 0 0.06 0"/>
<feBlend mode="normal" in2="BackgroundImageFix" result="effect1_dropShadow_1_295"/>
<feBlend mode="normal" in="SourceGraphic" in2="effect1_dropShadow_1_295" result="shape"/>
</filter>
</defs>
</svg>
