<svg width="12" height="24" viewBox="0 0 12 24" fill="none" xmlns="http://www.w3.org/2000/svg">
<path d="M2.73175 23.8345C2.96319 23.7247 3.16708 23.5645 3.32846 23.3657L11.61 13.0809C11.8621 12.7742 12 12.3895 12 11.9924C12 11.5954 11.8621 11.2107 11.61 10.904L3.03698 0.619231C2.74594 0.269179 2.32774 0.0490432 1.87435 0.00725332C1.42097 -0.0345366 0.969549 0.105442 0.6194 0.396395C0.269251 0.687348 0.049057 1.10544 0.00725555 1.5587C-0.0345459 2.01196 0.10547 2.46326 0.396502 2.81331L8.06074 12.001L0.653693 21.1887C0.444027 21.4403 0.310843 21.7467 0.269898 22.0716C0.228954 22.3965 0.281964 22.7264 0.422657 23.0221C0.56335 23.3178 0.785836 23.5671 1.06379 23.7404C1.34174 23.9137 1.66353 24.0037 1.99108 23.9999C2.24723 24.0008 2.50032 23.9442 2.73175 23.8345Z" fill="#0069FF"/>
</svg>
