<svg width="25" height="20" viewBox="0 0 25 20" fill="none" xmlns="http://www.w3.org/2000/svg">
<path d="M0 16.0379C0 16.8426 0.319662 17.6144 0.888663 18.1834C1.45766 18.7524 2.2294 19.072 3.03409 19.072H21.2386C22.0433 19.072 22.815 18.7524 23.384 18.1834C23.953 17.6144 24.2727 16.8426 24.2727 16.0379V7.69421H0V16.0379ZM3.57589 11.9203C3.57589 11.4892 3.74713 11.0758 4.05196 10.7709C4.35678 10.4661 4.77021 10.2949 5.20129 10.2949H7.80193C8.23302 10.2949 8.64645 10.4661 8.95127 10.7709C9.25609 11.0758 9.42734 11.4892 9.42734 11.9203V13.0039C9.42734 13.4349 9.25609 13.8484 8.95127 14.1532C8.64645 14.458 8.23302 14.6293 7.80193 14.6293H5.20129C4.77021 14.6293 4.35678 14.458 4.05196 14.1532C3.74713 13.8484 3.57589 13.4349 3.57589 13.0039V11.9203Z" fill="#999999"/>
<path d="M21.2386 0H3.03409C2.2294 0 1.45766 0.319662 0.888663 0.888663C0.319662 1.45766 0 2.2294 0 3.03409V4.44277H24.2727V3.03409C24.2727 2.2294 23.953 1.45766 23.384 0.888663C22.815 0.319662 22.0433 0 21.2386 0V0Z" fill="#999999"/>
</svg>
